<?xml version="1.0" encoding="UTF-8" standalone="no"?>
<!DOCTYPE svg PUBLIC "-//W3C//DTD SVG 1.1//EN"
 "http://www.w3.org/Graphics/SVG/1.1/DTD/svg11.dtd">
<!-- Generated by graphviz version 15.1.0 (0)
 -->
<!-- Title: linko Pages: 1 -->
<svg width="1018pt" height="1473pt"
 viewBox="0.00 0.00 1018.00 1473.00" xmlns="http://www.w3.org/2000/svg" xmlns:xlink="http://www.w3.org/1999/xlink">
<g id="graph0" class="graph" transform="scale(1 1) rotate(0) translate(4 1468.75)">
<title>linko</title>
<polygon fill="white" stroke="none" points="-4,4 -4,-1468.75 1013.75,-1468.75 1013.75,4 -4,4"/>
<g id="clust1" class="cluster">
<title>cluster_L</title>
<polygon fill="none" stroke="black" points="8,-1282.5 8,-1456.75 494,-1456.75 494,-1282.5 8,-1282.5"/>
</g>
<!-- File: linko -->
<g id="node1" class="node">
<title>File: linko</title>
<g id="a_node1"><a xlink:title="linko">
<polygon fill="#f8f8f8" stroke="black" points="485.88,-1448.75 16.12,-1448.75 16.12,-1290.5 485.88,-1290.5 485.88,-1448.75"/>
<text xml:space="preserve" text-anchor="start" x="24.12" y="-1429.55" font-family="Times,serif" font-size="16.00">File: linko</text>
<text xml:space="preserve" text-anchor="start" x="24.12" y="-1410.8" font-family="Times,serif" font-size="16.00">Build ID: de12a05addc16db63ee734f5324d49bbe97d8032</text>
<text xml:space="preserve" text-anchor="start" x="24.12" y="-1392.05" font-family="Times,serif" font-size="16.00">Type: inuse_space</text>
<text xml:space="preserve" text-anchor="start" x="24.12" y="-1373.3" font-family="Times,serif" font-size="16.00">Time: 2026&#45;07&#45;16 19:48:21 MDT</text>
<text xml:space="preserve" text-anchor="start" x="24.12" y="-1354.55" font-family="Times,serif" font-size="16.00">Duration: 30.01s, Total samples = 3115.50kB </text>
<text xml:space="preserve" text-anchor="start" x="24.12" y="-1335.8" font-family="Times,serif" font-size="16.00">Showing nodes accounting for 2090.13kB, 67.09% of 3115.50kB total</text>
<text xml:space="preserve" text-anchor="start" x="24.12" y="-1298.05" font-family="Times,serif" font-size="16.00">See https://git.io/JfYMW for how to read the graph</text>
</a>
</g>
</g>
<!-- N1 -->
<g id="node1" class="node">
<title>N1</title>
<g id="a_node1"><a xlink:title="net/http.HandlerFunc.ServeHTTP (2090.79kB)">
<polygon fill="#edd8d5" stroke="#b21400" points="600.5,-1122 503.5,-1122 503.5,-1075 600.5,-1075 600.5,-1122"/>
<text xml:space="preserve" text-anchor="middle" x="552" y="-1110.4" font-family="Times,serif" font-size="8.00">http</text>
<text xml:space="preserve" text-anchor="middle" x="552" y="-1100.65" font-family="Times,serif" font-size="8.00">HandlerFunc</text>
<text xml:space="preserve" text-anchor="middle" x="552" y="-1090.9" font-family="Times,serif" font-size="8.00">ServeHTTP</text>
<text xml:space="preserve" text-anchor="middle" x="552" y="-1081.15" font-family="Times,serif" font-size="8.00">0 of 2090.79kB (67.11%)</text>
</a>
</g>
</g>
<!-- N8 -->
<g id="node8" class="node">
<title>N8</title>
<g id="a_node8"><a xlink:title="main.(*server).handlerRedirect (2090.79kB)">
<polygon fill="#edd8d5" stroke="#b21400" points="339.5,-1007.88 242.5,-1007.88 242.5,-960.88 339.5,-960.88 339.5,-1007.88"/>
<text xml:space="preserve" text-anchor="middle" x="291" y="-996.27" font-family="Times,serif" font-size="8.00">main</text>
<text xml:space="preserve" text-anchor="middle" x="291" y="-986.52" font-family="Times,serif" font-size="8.00">(*server)</text>
<text xml:space="preserve" text-anchor="middle" x="291" y="-976.77" font-family="Times,serif" font-size="8.00">handlerRedirect</text>
<text xml:space="preserve" text-anchor="middle" x="291" y="-967.02" font-family="Times,serif" font-size="8.00">0 of 2090.79kB (67.11%)</text>
</a>
</g>
</g>
<!-- N1&#45;&gt;N8 -->
<g id="edge10" class="edge">
<title>N1&#45;&gt;N8</title>
<g id="a_edge10"><a xlink:title="net/http.HandlerFunc.ServeHTTP &#45;&gt; main.(*server).handlerRedirect (2090.79kB)">
<path fill="none" stroke="#b21400" stroke-width="4" d="M503.16,-1092.98C447.84,-1087.08 361.93,-1075.29 335.25,-1057 322.81,-1048.47 313.21,-1035.18 306.18,-1022.36"/>
<polygon fill="#b21400" stroke="#b21400" stroke-width="4" points="309.53,-1021.23 301.99,-1013.79 303.24,-1024.31 309.53,-1021.23"/>
</a>
</g>
<g id="a_edge10&#45;label"><a xlink:title="net/http.HandlerFunc.ServeHTTP &#45;&gt; main.(*server).handlerRedirect (2090.79kB)">
<text xml:space="preserve" text-anchor="middle" x="367.12" y="-1043.7" font-family="Times,serif" font-size="14.00"> 2090.79kB</text>
</a>
</g>
</g>
<!-- N9 -->
<g id="node9" class="node">
<title>N9</title>
<g id="a_node9"><a xlink:title="main.newServer.metricsMiddleware.func2 (2090.79kB)">
<polygon fill="#edd8d5" stroke="#b21400" points="462.5,-1012.75 365.5,-1012.75 365.5,-956 462.5,-956 462.5,-1012.75"/>
<text xml:space="preserve" text-anchor="middle" x="414" y="-1001.15" font-family="Times,serif" font-size="8.00">main</text>
<text xml:space="preserve" text-anchor="middle" x="414" y="-991.4" font-family="Times,serif" font-size="8.00">newServer</text>
<text xml:space="preserve" text-anchor="middle" x="414" y="-981.65" font-family="Times,serif" font-size="8.00">metricsMiddleware</text>
<text xml:space="preserve" text-anchor="middle" x="414" y="-971.9" font-family="Times,serif" font-size="8.00">func2</text>
<text xml:space="preserve" text-anchor="middle" x="414" y="-962.15" font-family="Times,serif" font-size="8.00">0 of 2090.79kB (67.11%)</text>
</a>
</g>
</g>
<!-- N1&#45;&gt;N9 -->
<g id="edge11" class="edge">
<title>N1&#45;&gt;N9</title>
<g id="a_edge11"><a xlink:title="net/http.HandlerFunc.ServeHTTP &#45;&gt; main.newServer.metricsMiddleware.func2 (2090.79kB)">
<path fill="none" stroke="#b21400" stroke-width="4" d="M503.35,-1090.08C466.66,-1083.37 420.74,-1072.21 409.25,-1057 403.14,-1048.91 401.39,-1038.73 401.85,-1028.6"/>
<polygon fill="#b21400" stroke="#b21400" stroke-width="4" points="405.27,-1029.42 403.22,-1019.03 398.34,-1028.43 405.27,-1029.42"/>
</a>
</g>
<g id="a_edge11&#45;label"><a xlink:title="net/http.HandlerFunc.ServeHTTP &#45;&gt; main.newServer.metricsMiddleware.func2 (2090.79kB)">
<text xml:space="preserve" text-anchor="middle" x="441.12" y="-1043.7" font-family="Times,serif" font-size="14.00"> 2090.79kB</text>
</a>
</g>
</g>
<!-- N10 -->
<g id="node10" class="node">
<title>N10</title>
<g id="a_node10"><a xlink:title="main.newServer.newServer.requestLogger.func1.func3 (2090.79kB)">
<polygon fill="#edd8d5" stroke="#b21400" points="592.5,-1022.5 495.5,-1022.5 495.5,-946.25 592.5,-946.25 592.5,-1022.5"/>
<text xml:space="preserve" text-anchor="middle" x="544" y="-1010.9" font-family="Times,serif" font-size="8.00">main</text>
<text xml:space="preserve" text-anchor="middle" x="544" y="-1001.15" font-family="Times,serif" font-size="8.00">newServer</text>
<text xml:space="preserve" text-anchor="middle" x="544" y="-991.4" font-family="Times,serif" font-size="8.00">newServer</text>
<text xml:space="preserve" text-anchor="middle" x="544" y="-981.65" font-family="Times,serif" font-size="8.00">requestLogger</text>
<text xml:space="preserve" text-anchor="middle" x="544" y="-971.9" font-family="Times,serif" font-size="8.00">func1</text>
<text xml:space="preserve" text-anchor="middle" x="544" y="-962.15" font-family="Times,serif" font-size="8.00">func3</text>
<text xml:space="preserve" text-anchor="middle" x="544" y="-952.4" font-family="Times,serif" font-size="8.00">0 of 2090.79kB (67.11%)</text>
</a>
</g>
</g>
<!-- N1&#45;&gt;N10 -->
<g id="edge12" class="edge">
<title>N1&#45;&gt;N10</title>
<g id="a_edge12"><a xlink:title="net/http.HandlerFunc.ServeHTTP &#45;&gt; main.newServer.newServer.requestLogger.func1.func3 (2090.79kB)">
<path fill="none" stroke="#b21400" stroke-width="4" d="M503.23,-1079.29C494.06,-1073.58 485.66,-1066.26 480.25,-1057 473.87,-1046.06 476.9,-1035.3 484.33,-1025.58"/>
<polygon fill="#b21400" stroke="#b21400" stroke-width="4" points="486.59,-1028.27 491.02,-1018.65 481.56,-1023.41 486.59,-1028.27"/>
</a>
</g>
<g id="a_edge12&#45;label"><a xlink:title="net/http.HandlerFunc.ServeHTTP &#45;&gt; main.newServer.newServer.requestLogger.func1.func3 (2090.79kB)">
<text xml:space="preserve" text-anchor="middle" x="512.12" y="-1043.7" font-family="Times,serif" font-size="14.00"> 2090.79kB</text>
</a>
</g>
</g>
<!-- N11 -->
<g id="node11" class="node">
<title>N11</title>
<g id="a_node11"><a xlink:title="main.newServer.requestIdentifier.func4 (2090.79kB)">
<polygon fill="#edd8d5" stroke="#b21400" points="742.5,-1012.75 645.5,-1012.75 645.5,-956 742.5,-956 742.5,-1012.75"/>
<text xml:space="preserve" text-anchor="middle" x="694" y="-1001.15" font-family="Times,serif" font-size="8.00">main</text>
<text xml:space="preserve" text-anchor="middle" x="694" y="-991.4" font-family="Times,serif" font-size="8.00">newServer</text>
<text xml:space="preserve" text-anchor="middle" x="694" y="-981.65" font-family="Times,serif" font-size="8.00">requestIdentifier</text>
<text xml:space="preserve" text-anchor="middle" x="694" y="-971.9" font-family="Times,serif" font-size="8.00">func4</text>
<text xml:space="preserve" text-anchor="middle" x="694" y="-962.15" font-family="Times,serif" font-size="8.00">0 of 2090.79kB (67.11%)</text>
</a>
</g>
</g>
<!-- N1&#45;&gt;N11 -->
<g id="edge13" class="edge">
<title>N1&#45;&gt;N11</title>
<g id="a_edge13"><a xlink:title="net/http.HandlerFunc.ServeHTTP &#45;&gt; main.newServer.requestIdentifier.func4 (2090.79kB)">
<path fill="none" stroke="#b21400" stroke-width="4" d="M591.31,-1074.7C599.99,-1069.21 608.98,-1063.14 617,-1057 624.72,-1051.09 639.35,-1037.7 653.8,-1024.07"/>
<polygon fill="#b21400" stroke="#b21400" stroke-width="4" points="655.98,-1026.83 660.82,-1017.4 651.16,-1021.75 655.98,-1026.83"/>
</a>
</g>
<g id="a_edge13&#45;label"><a xlink:title="net/http.HandlerFunc.ServeHTTP &#45;&gt; main.newServer.requestIdentifier.func4 (2090.79kB)">
<text xml:space="preserve" text-anchor="middle" x="667.77" y="-1043.7" font-family="Times,serif" font-size="14.00"> 2090.79kB</text>
</a>
</g>
</g>
<!-- N2 -->
<g id="node2" class="node">
<title>N2</title>
<g id="a_node2"><a xlink:title="net/http.(*conn).serve (2602.82kB)">
<polygon fill="#edd6d5" stroke="#b20900" points="600.5,-1393.12 503.5,-1393.12 503.5,-1346.12 600.5,-1346.12 600.5,-1393.12"/>
<text xml:space="preserve" text-anchor="middle" x="552" y="-1381.53" font-family="Times,serif" font-size="8.00">http</text>
<text xml:space="preserve" text-anchor="middle" x="552" y="-1371.78" font-family="Times,serif" font-size="8.00">(*conn)</text>
<text xml:space="preserve" text-anchor="middle" x="552" y="-1362.03" font-family="Times,serif" font-size="8.00">serve</text>
<text xml:space="preserve" text-anchor="middle" x="552" y="-1352.28" font-family="Times,serif" font-size="8.00">0 of 2602.82kB (83.54%)</text>
</a>
</g>
</g>
<!-- N13 -->
<g id="node13" class="node">
<title>N13</title>
<g id="a_node13"><a xlink:title="net/http.(*conn).readRequest (512.02kB)">
<polygon fill="#ede1d9" stroke="#b25d1f" points="485.62,-1221.5 392.38,-1221.5 392.38,-1174.5 485.62,-1174.5 485.62,-1221.5"/>
<text xml:space="preserve" text-anchor="middle" x="439" y="-1209.9" font-family="Times,serif" font-size="8.00">http</text>
<text xml:space="preserve" text-anchor="middle" x="439" y="-1200.15" font-family="Times,serif" font-size="8.00">(*conn)</text>
<text xml:space="preserve" text-anchor="middle" x="439" y="-1190.4" font-family="Times,serif" font-size="8.00">readRequest</text>
<text xml:space="preserve" text-anchor="middle" x="439" y="-1180.65" font-family="Times,serif" font-size="8.00">0 of 512.02kB (16.43%)</text>
</a>
</g>
</g>
<!-- N2&#45;&gt;N13 -->
<g id="edge29" class="edge">
<title>N2&#45;&gt;N13</title>
<g id="a_edge29"><a xlink:title="net/http.(*conn).serve &#45;&gt; net/http.(*conn).readRequest (512.02kB)">
<path fill="none" stroke="#b25d1f" d="M538.13,-1345.74C527.41,-1328.26 512.09,-1303.65 498,-1282.5 496.22,-1279.83 477.69,-1253.62 461.86,-1231.26"/>
<polygon fill="#b25d1f" stroke="#b25d1f" points="464.81,-1229.37 456.17,-1223.23 459.09,-1233.42 464.81,-1229.37"/>
</a>
</g>
<g id="a_edge29&#45;label"><a xlink:title="net/http.(*conn).serve &#45;&gt; net/http.(*conn).readRequest (512.02kB)">
<text xml:space="preserve" text-anchor="middle" x="519.15" y="-1250.95" font-family="Times,serif" font-size="14.00"> 512.02kB</text>
</a>
</g>
</g>
<!-- N16 -->
<g id="node16" class="node">
<title>N16</title>
<g id="a_node16"><a xlink:title="net/http.serverHandler.ServeHTTP (2090.79kB)">
<polygon fill="#edd8d5" stroke="#b21400" points="600.5,-1221.5 503.5,-1221.5 503.5,-1174.5 600.5,-1174.5 600.5,-1221.5"/>
<text xml:space="preserve" text-anchor="middle" x="552" y="-1209.9" font-family="Times,serif" font-size="8.00">http</text>
<text xml:space="preserve" text-anchor="middle" x="552" y="-1200.15" font-family="Times,serif" font-size="8.00">serverHandler</text>
<text xml:space="preserve" text-anchor="middle" x="552" y="-1190.4" font-family="Times,serif" font-size="8.00">ServeHTTP</text>
<text xml:space="preserve" text-anchor="middle" x="552" y="-1180.65" font-family="Times,serif" font-size="8.00">0 of 2090.79kB (67.11%)</text>
</a>
</g>
</g>
<!-- N2&#45;&gt;N16 -->
<g id="edge9" class="edge">
<title>N2&#45;&gt;N16</title>
<g id="a_edge9"><a xlink:title="net/http.(*conn).serve &#45;&gt; net/http.serverHandler.ServeHTTP (2090.79kB)">
<path fill="none" stroke="#b21400" stroke-width="4" d="M552,-1345.75C552,-1318.1 552,-1271.15 552,-1237.81"/>
<polygon fill="#b21400" stroke="#b21400" stroke-width="4" points="555.5,-1237.84 552,-1227.84 548.5,-1237.84 555.5,-1237.84"/>
</a>
</g>
<g id="a_edge9&#45;label"><a xlink:title="net/http.(*conn).serve &#45;&gt; net/http.serverHandler.ServeHTTP (2090.79kB)">
<text xml:space="preserve" text-anchor="middle" x="583.88" y="-1250.95" font-family="Times,serif" font-size="14.00"> 2090.79kB</text>
</a>
</g>
</g>
<!-- N3 -->
<g id="node3" class="node">
<title>N3</title>
<g id="a_node3"><a xlink:title="internal/bytealg.MakeNoZero (2090.79kB)">
<polygon fill="#edd8d5" stroke="#b21400" points="399.88,-545 182.12,-545 182.12,-456 399.88,-456 399.88,-545"/>
<text xml:space="preserve" text-anchor="middle" x="291" y="-518.2" font-family="Times,serif" font-size="24.00">bytealg</text>
<text xml:space="preserve" text-anchor="middle" x="291" y="-491.2" font-family="Times,serif" font-size="24.00">MakeNoZero</text>
<text xml:space="preserve" text-anchor="middle" x="291" y="-464.2" font-family="Times,serif" font-size="24.00">2090.79kB (67.11%)</text>
</a>
</g>
</g>
<!-- NN3_0 -->
<g id="NN3_0" class="node">
<title>NN3_0</title>
<g id="a_NN3_0"><a xlink:title="2090.79kB">
<polygon fill="#f8f8f8" stroke="black" points="318,-398 268,-398 264,-394 264,-362 314,-362 318,-366 318,-398"/>
<polyline fill="none" stroke="black" points="314,-394 264,-394"/>
<polyline fill="none" stroke="black" points="314,-394 314,-362"/>
<polyline fill="none" stroke="black" points="314,-394 318,-398"/>
<text xml:space="preserve" text-anchor="middle" x="291" y="-377.27" font-family="Times,serif" font-size="8.00">21.25kB</text>
</a>
</g>
</g>
<!-- N3&#45;&gt;NN3_0 -->
<g id="edge1" class="edge">
<title>N3&#45;&gt;NN3_0</title>
<g id="a_edge1"><a xlink:title="2090.79kB">
<path fill="none" stroke="black" d="M291,-455.71C291,-440.31 291,-423.41 291,-409.59"/>
<polygon fill="black" stroke="black" points="294.5,-409.86 291,-399.86 287.5,-409.86 294.5,-409.86"/>
</a>
</g>
<g id="a_edge1&#45;label"><a xlink:title="2090.79kB">
<text xml:space="preserve" text-anchor="middle" x="322.88" y="-424.7" font-family="Times,serif" font-size="14.00"> 2090.79kB</text>
</a>
</g>
</g>
<!-- N4 -->
<g id="node4" class="node">
<title>N4</title>
<g id="a_node4"><a xlink:title="regexp/syntax.(*compiler).inst (&#45;512.69kB)">
<polygon fill="#e1edd9" stroke="#5db21f" points="1009.75,-171.5 860.25,-171.5 860.25,-88.5 1009.75,-88.5 1009.75,-171.5"/>
<text xml:space="preserve" text-anchor="middle" x="935" y="-152.3" font-family="Times,serif" font-size="16.00">syntax</text>
<text xml:space="preserve" text-anchor="middle" x="935" y="-133.55" font-family="Times,serif" font-size="16.00">(*compiler)</text>
<text xml:space="preserve" text-anchor="middle" x="935" y="-114.8" font-family="Times,serif" font-size="16.00">inst</text>
<text xml:space="preserve" text-anchor="middle" x="935" y="-96.05" font-family="Times,serif" font-size="16.00">&#45;512.69kB (16.46%)</text>
</a>
</g>
</g>
<!-- NN4_0 -->
<g id="NN4_0" class="node">
<title>NN4_0</title>
<g id="a_NN4_0"><a xlink:title="&#45;512.69kB">
<polygon fill="#f8f8f8" stroke="black" points="962,-36 912,-36 908,-32 908,0 958,0 962,-4 962,-36"/>
<polyline fill="none" stroke="black" points="958,-32 908,-32"/>
<polyline fill="none" stroke="black" points="958,-32 958,0"/>
<polyline fill="none" stroke="black" points="958,-32 962,-36"/>
<text xml:space="preserve" text-anchor="middle" x="935" y="-15.28" font-family="Times,serif" font-size="8.00">1.38kB</text>
</a>
</g>
</g>
<!-- N4&#45;&gt;NN4_0 -->
<g id="edge2" class="edge">
<title>N4&#45;&gt;NN4_0</title>
<g id="a_edge2"><a xlink:title="&#45;512.69kB">
<path fill="none" stroke="black" d="M935,-88.04C935,-74.66 935,-60.1 935,-47.81"/>
<polygon fill="black" stroke="black" points="938.5,-47.92 935,-37.92 931.5,-47.92 938.5,-47.92"/>
</a>
</g>
<g id="a_edge2&#45;label"><a xlink:title="&#45;512.69kB">
<text xml:space="preserve" text-anchor="middle" x="965.75" y="-57.2" font-family="Times,serif" font-size="14.00"> &#45;512.69kB</text>
</a>
</g>
</g>
<!-- N5 -->
<g id="node5" class="node">
<title>N5</title>
<g id="a_node5"><a xlink:title="net/textproto.NewReader (512.02kB)">
<polygon fill="#ede1d9" stroke="#b25d1f" points="224.12,-877.25 79.88,-877.25 79.88,-813 224.12,-813 224.12,-877.25"/>
<text xml:space="preserve" text-anchor="middle" x="152" y="-858.05" font-family="Times,serif" font-size="16.00">textproto</text>
<text xml:space="preserve" text-anchor="middle" x="152" y="-839.3" font-family="Times,serif" font-size="16.00">NewReader</text>
<text xml:space="preserve" text-anchor="middle" x="152" y="-820.55" font-family="Times,serif" font-size="16.00">512.02kB (16.43%)</text>
</a>
</g>
</g>
<!-- NN5_0 -->
<g id="NN5_0" class="node">
<title>NN5_0</title>
<g id="a_NN5_0"><a xlink:title="512.02kB">
<polygon fill="#f8f8f8" stroke="black" points="179,-738.5 129,-738.5 125,-734.5 125,-702.5 175,-702.5 179,-706.5 179,-738.5"/>
<polyline fill="none" stroke="black" points="175,-734.5 125,-734.5"/>
<polyline fill="none" stroke="black" points="175,-734.5 175,-702.5"/>
<polyline fill="none" stroke="black" points="175,-734.5 179,-738.5"/>
<text xml:space="preserve" text-anchor="middle" x="152" y="-717.77" font-family="Times,serif" font-size="8.00">48B</text>
</a>
</g>
</g>
<!-- N5&#45;&gt;NN5_0 -->
<g id="edge3" class="edge">
<title>N5&#45;&gt;NN5_0</title>
<g id="a_edge3"><a xlink:title="512.02kB">
<path fill="none" stroke="black" d="M152,-812.55C152,-793.34 152,-768.99 152,-750.31"/>
<polygon fill="black" stroke="black" points="155.5,-750.47 152,-740.47 148.5,-750.47 155.5,-750.47"/>
</a>
</g>
<g id="a_edge3&#45;label"><a xlink:title="512.02kB">
<text xml:space="preserve" text-anchor="middle" x="180.5" y="-773.45" font-family="Times,serif" font-size="14.00"> 512.02kB</text>
</a>
</g>
</g>
<!-- N6 -->
<g id="node6" class="node">
<title>N6</title>
<g id="a_node6"><a xlink:title="runtime.main (&#45;512.69kB)">
<polygon fill="#e1edd9" stroke="#5db21f" points="983.12,-1388.25 886.88,-1388.25 886.88,-1351 983.12,-1351 983.12,-1388.25"/>
<text xml:space="preserve" text-anchor="middle" x="935" y="-1376.65" font-family="Times,serif" font-size="8.00">runtime</text>
<text xml:space="preserve" text-anchor="middle" x="935" y="-1366.9" font-family="Times,serif" font-size="8.00">main</text>
<text xml:space="preserve" text-anchor="middle" x="935" y="-1357.15" font-family="Times,serif" font-size="8.00">0 of &#45;512.69kB (16.46%)</text>
</a>
</g>
</g>
<!-- N23 -->
<g id="node23" class="node">
<title>N23</title>
<g id="a_node23"><a xlink:title="runtime.doInit (&#45;512.69kB)">
<polygon fill="#e1edd9" stroke="#5db21f" points="983.12,-1216.62 886.88,-1216.62 886.88,-1179.38 983.12,-1179.38 983.12,-1216.62"/>
<text xml:space="preserve" text-anchor="middle" x="935" y="-1205.03" font-family="Times,serif" font-size="8.00">runtime</text>
<text xml:space="preserve" text-anchor="middle" x="935" y="-1195.28" font-family="Times,serif" font-size="8.00">doInit</text>
<text xml:space="preserve" text-anchor="middle" x="935" y="-1185.53" font-family="Times,serif" font-size="8.00">0 of &#45;512.69kB (16.46%)</text>
</a>
</g>
</g>
<!-- N6&#45;&gt;N23 -->
<g id="edge27" class="edge">
<title>N6&#45;&gt;N23</title>
<g id="a_edge27"><a xlink:title="runtime.main &#45;&gt; runtime.doInit (&#45;512.69kB)">
<path fill="none" stroke="#5db21f" d="M935,-1350.79C935,-1321.73 935,-1263.85 935,-1228.56"/>
<polygon fill="#5db21f" stroke="#5db21f" points="938.5,-1228.62 935,-1218.62 931.5,-1228.62 938.5,-1228.62"/>
</a>
</g>
<g id="a_edge27&#45;label"><a xlink:title="runtime.main &#45;&gt; runtime.doInit (&#45;512.69kB)">
<text xml:space="preserve" text-anchor="middle" x="965.75" y="-1259.2" font-family="Times,serif" font-size="14.00"> &#45;512.69kB</text>
<text xml:space="preserve" text-anchor="middle" x="965.75" y="-1242.7" font-family="Times,serif" font-size="14.00"> (inline)</text>
</a>
</g>
</g>
<!-- N7 -->
<g id="node7" class="node">
<title>N7</title>
<g id="a_node7"><a xlink:title="github.com/prometheus/procfs.init (&#45;512.69kB)">
<polygon fill="#e1edd9" stroke="#5db21f" points="983.12,-1003 886.88,-1003 886.88,-965.75 983.12,-965.75 983.12,-1003"/>
<text xml:space="preserve" text-anchor="middle" x="935" y="-991.4" font-family="Times,serif" font-size="8.00">procfs</text>
<text xml:space="preserve" text-anchor="middle" x="935" y="-981.65" font-family="Times,serif" font-size="8.00">init</text>
<text xml:space="preserve" text-anchor="middle" x="935" y="-971.9" font-family="Times,serif" font-size="8.00">0 of &#45;512.69kB (16.46%)</text>
</a>
</g>
</g>
<!-- N18 -->
<g id="node18" class="node">
<title>N18</title>
<g id="a_node18"><a xlink:title="regexp.MustCompile (&#45;512.69kB)">
<polygon fill="#e1edd9" stroke="#5db21f" points="983.12,-863.75 886.88,-863.75 886.88,-826.5 983.12,-826.5 983.12,-863.75"/>
<text xml:space="preserve" text-anchor="middle" x="935" y="-852.15" font-family="Times,serif" font-size="8.00">regexp</text>
<text xml:space="preserve" text-anchor="middle" x="935" y="-842.4" font-family="Times,serif" font-size="8.00">MustCompile</text>
<text xml:space="preserve" text-anchor="middle" x="935" y="-832.65" font-family="Times,serif" font-size="8.00">0 of &#45;512.69kB (16.46%)</text>
</a>
</g>
</g>
<!-- N7&#45;&gt;N18 -->
<g id="edge18" class="edge">
<title>N7&#45;&gt;N18</title>
<g id="a_edge18"><a xlink:title="github.com/prometheus/procfs.init &#45;&gt; regexp.MustCompile (&#45;512.69kB)">
<path fill="none" stroke="#5db21f" d="M935,-965.43C935,-942.52 935,-902.57 935,-875.27"/>
<polygon fill="#5db21f" stroke="#5db21f" points="938.5,-875.59 935,-865.59 931.5,-875.59 938.5,-875.59"/>
</a>
</g>
<g id="a_edge18&#45;label"><a xlink:title="github.com/prometheus/procfs.init &#45;&gt; regexp.MustCompile (&#45;512.69kB)">
<text xml:space="preserve" text-anchor="middle" x="965.75" y="-906.7" font-family="Times,serif" font-size="14.00"> &#45;512.69kB</text>
</a>
</g>
</g>
<!-- N27 -->
<g id="node27" class="node">
<title>N27</title>
<g id="a_node27"><a xlink:title="strings.Repeat (2090.79kB)">
<polygon fill="#edd8d5" stroke="#b21400" points="339.5,-863.75 242.5,-863.75 242.5,-826.5 339.5,-826.5 339.5,-863.75"/>
<text xml:space="preserve" text-anchor="middle" x="291" y="-852.15" font-family="Times,serif" font-size="8.00">strings</text>
<text xml:space="preserve" text-anchor="middle" x="291" y="-842.4" font-family="Times,serif" font-size="8.00">Repeat</text>
<text xml:space="preserve" text-anchor="middle" x="291" y="-832.65" font-family="Times,serif" font-size="8.00">0 of 2090.79kB (67.11%)</text>
</a>
</g>
</g>
<!-- N8&#45;&gt;N27 -->
<g id="edge4" class="edge">
<title>N8&#45;&gt;N27</title>
<g id="a_edge4"><a xlink:title="main.(*server).handlerRedirect &#45;&gt; strings.Repeat (2090.79kB)">
<path fill="none" stroke="#b21400" stroke-width="4" d="M291,-960.4C291,-938.33 291,-904.72 291,-879.66"/>
<polygon fill="#b21400" stroke="#b21400" stroke-width="4" points="294.5,-879.97 291,-869.97 287.5,-879.97 294.5,-879.97"/>
</a>
</g>
<g id="a_edge4&#45;label"><a xlink:title="main.(*server).handlerRedirect &#45;&gt; strings.Repeat (2090.79kB)">
<text xml:space="preserve" text-anchor="middle" x="322.88" y="-906.7" font-family="Times,serif" font-size="14.00"> 2090.79kB</text>
</a>
</g>
</g>
<!-- N12 -->
<g id="node12" class="node">
<title>N12</title>
<g id="a_node12"><a xlink:title="net/http.(*ServeMux).ServeHTTP (2090.79kB)">
<polygon fill="#edd8d5" stroke="#b21400" points="662.5,-868.62 565.5,-868.62 565.5,-821.62 662.5,-821.62 662.5,-868.62"/>
<text xml:space="preserve" text-anchor="middle" x="614" y="-857.02" font-family="Times,serif" font-size="8.00">http</text>
<text xml:space="preserve" text-anchor="middle" x="614" y="-847.27" font-family="Times,serif" font-size="8.00">(*ServeMux)</text>
<text xml:space="preserve" text-anchor="middle" x="614" y="-837.52" font-family="Times,serif" font-size="8.00">ServeHTTP</text>
<text xml:space="preserve" text-anchor="middle" x="614" y="-827.77" font-family="Times,serif" font-size="8.00">0 of 2090.79kB (67.11%)</text>
</a>
</g>
</g>
<!-- N9&#45;&gt;N12 -->
<g id="edge5" class="edge">
<title>N9&#45;&gt;N12</title>
<g id="a_edge5"><a xlink:title="main.newServer.metricsMiddleware.func2 &#45;&gt; net/http.(*ServeMux).ServeHTTP (2090.79kB)">
<path fill="none" stroke="#b21400" stroke-width="4" d="M454.47,-955.6C487.22,-933.13 533.36,-901.46 567.6,-877.97"/>
<polygon fill="#b21400" stroke="#b21400" stroke-width="4" points="569.29,-881.05 575.56,-872.51 565.33,-875.28 569.29,-881.05"/>
</a>
</g>
<g id="a_edge5&#45;label"><a xlink:title="main.newServer.metricsMiddleware.func2 &#45;&gt; net/http.(*ServeMux).ServeHTTP (2090.79kB)">
<text xml:space="preserve" text-anchor="middle" x="569.67" y="-906.7" font-family="Times,serif" font-size="14.00"> 2090.79kB</text>
</a>
</g>
</g>
<!-- N10&#45;&gt;N1 -->
<g id="edge6" class="edge">
<title>N10&#45;&gt;N1</title>
<g id="a_edge6"><a xlink:title="main.newServer.newServer.requestLogger.func1.func3 &#45;&gt; net/http.HandlerFunc.ServeHTTP (2090.79kB)">
<path fill="none" stroke="#b21400" stroke-width="4" d="M546.68,-1022.87C547.5,-1034.36 548.4,-1047.03 549.23,-1058.61"/>
<polygon fill="#b21400" stroke="#b21400" stroke-width="4" points="545.73,-1058.77 549.93,-1068.5 552.71,-1058.28 545.73,-1058.77"/>
</a>
</g>
<g id="a_edge6&#45;label"><a xlink:title="main.newServer.newServer.requestLogger.func1.func3 &#45;&gt; net/http.HandlerFunc.ServeHTTP (2090.79kB)">
<text xml:space="preserve" text-anchor="middle" x="580.83" y="-1043.7" font-family="Times,serif" font-size="14.00"> 2090.79kB</text>
</a>
</g>
</g>
<!-- N11&#45;&gt;N1 -->
<g id="edge7" class="edge">
<title>N11&#45;&gt;N1</title>
<g id="a_edge7"><a xlink:title="main.newServer.requestIdentifier.func4 &#45;&gt; net/http.HandlerFunc.ServeHTTP (2090.79kB)">
<path fill="none" stroke="#b21400" stroke-width="4" d="M706.8,-1013.02C711.44,-1027.46 713.49,-1044.66 704,-1057 692.98,-1071.34 652.7,-1081.68 616.37,-1088.32"/>
<polygon fill="#b21400" stroke="#b21400" stroke-width="4" points="615.84,-1084.86 606.58,-1090 617.03,-1091.76 615.84,-1084.86"/>
</a>
</g>
<g id="a_edge7&#45;label"><a xlink:title="main.newServer.requestIdentifier.func4 &#45;&gt; net/http.HandlerFunc.ServeHTTP (2090.79kB)">
<text xml:space="preserve" text-anchor="middle" x="742.13" y="-1043.7" font-family="Times,serif" font-size="14.00"> 2090.79kB</text>
</a>
</g>
</g>
<!-- N12&#45;&gt;N1 -->
<g id="edge8" class="edge">
<title>N12&#45;&gt;N1</title>
<g id="a_edge8"><a xlink:title="net/http.(*ServeMux).ServeHTTP &#45;&gt; net/http.HandlerFunc.ServeHTTP (2090.79kB)">
<path fill="none" stroke="#b21400" stroke-width="4" d="M654.93,-869.01C719.89,-908.19 833.8,-990.31 778,-1057 757.73,-1081.22 675.96,-1090.98 616.59,-1094.89"/>
<polygon fill="#b21400" stroke="#b21400" stroke-width="4" points="616.7,-1091.38 606.93,-1095.47 617.12,-1098.37 616.7,-1091.38"/>
</a>
</g>
<g id="a_edge8&#45;label"><a xlink:title="net/http.(*ServeMux).ServeHTTP &#45;&gt; net/http.HandlerFunc.ServeHTTP (2090.79kB)">
<text xml:space="preserve" text-anchor="middle" x="824.8" y="-979.33" font-family="Times,serif" font-size="14.00"> 2090.79kB</text>
</a>
</g>
</g>
<!-- N15 -->
<g id="node15" class="node">
<title>N15</title>
<g id="a_node15"><a xlink:title="net/http.readRequest (512.02kB)">
<polygon fill="#ede1d9" stroke="#b25d1f" points="371.62,-1117.12 278.38,-1117.12 278.38,-1079.88 371.62,-1079.88 371.62,-1117.12"/>
<text xml:space="preserve" text-anchor="middle" x="325" y="-1105.53" font-family="Times,serif" font-size="8.00">http</text>
<text xml:space="preserve" text-anchor="middle" x="325" y="-1095.78" font-family="Times,serif" font-size="8.00">readRequest</text>
<text xml:space="preserve" text-anchor="middle" x="325" y="-1086.03" font-family="Times,serif" font-size="8.00">0 of 512.02kB (16.43%)</text>
</a>
</g>
</g>
<!-- N13&#45;&gt;N15 -->
<g id="edge28" class="edge">
<title>N13&#45;&gt;N15</title>
<g id="a_edge28"><a xlink:title="net/http.(*conn).readRequest &#45;&gt; net/http.readRequest (512.02kB)">
<path fill="none" stroke="#b25d1f" d="M412.27,-1174.14C394.85,-1159.24 372.12,-1139.8 354.22,-1124.49"/>
<polygon fill="#b25d1f" stroke="#b25d1f" points="356.89,-1122.17 347.02,-1118.33 352.34,-1127.49 356.89,-1122.17"/>
</a>
</g>
<g id="a_edge28&#45;label"><a xlink:title="net/http.(*conn).readRequest &#45;&gt; net/http.readRequest (512.02kB)">
<text xml:space="preserve" text-anchor="middle" x="417.33" y="-1143.2" font-family="Times,serif" font-size="14.00"> 512.02kB</text>
</a>
</g>
</g>
<!-- N14 -->
<g id="node14" class="node">
<title>N14</title>
<g id="a_node14"><a xlink:title="net/http.newTextprotoReader (512.02kB)">
<polygon fill="#ede1d9" stroke="#b25d1f" points="218.62,-1003 125.38,-1003 125.38,-965.75 218.62,-965.75 218.62,-1003"/>
<text xml:space="preserve" text-anchor="middle" x="172" y="-991.4" font-family="Times,serif" font-size="8.00">http</text>
<text xml:space="preserve" text-anchor="middle" x="172" y="-981.65" font-family="Times,serif" font-size="8.00">newTextprotoReader</text>
<text xml:space="preserve" text-anchor="middle" x="172" y="-971.9" font-family="Times,serif" font-size="8.00">0 of 512.02kB (16.43%)</text>
</a>
</g>
</g>
<!-- N14&#45;&gt;N5 -->
<g id="edge30" class="edge">
<title>N14&#45;&gt;N5</title>
<g id="a_edge30"><a xlink:title="net/http.newTextprotoReader &#45;&gt; net/textproto.NewReader (512.02kB)">
<path fill="none" stroke="#b25d1f" d="M169.39,-965.43C166.58,-946.15 162.01,-914.81 158.26,-889.09"/>
<polygon fill="#b25d1f" stroke="#b25d1f" points="161.73,-888.61 156.82,-879.22 154.8,-889.62 161.73,-888.61"/>
</a>
</g>
<g id="a_edge30&#45;label"><a xlink:title="net/http.newTextprotoReader &#45;&gt; net/textproto.NewReader (512.02kB)">
<text xml:space="preserve" text-anchor="middle" x="192.29" y="-914.95" font-family="Times,serif" font-size="14.00"> 512.02kB</text>
<text xml:space="preserve" text-anchor="middle" x="192.29" y="-898.45" font-family="Times,serif" font-size="14.00"> (inline)</text>
</a>
</g>
</g>
<!-- N15&#45;&gt;N14 -->
<g id="edge31" class="edge">
<title>N15&#45;&gt;N14</title>
<g id="a_edge31"><a xlink:title="net/http.readRequest &#45;&gt; net/http.newTextprotoReader (512.02kB)">
<path fill="none" stroke="#b25d1f" d="M277.97,-1088.66C256.02,-1082.66 230.68,-1072.83 212,-1057 198.58,-1045.63 188.8,-1028.56 182.27,-1013.93"/>
<polygon fill="#b25d1f" stroke="#b25d1f" points="185.53,-1012.67 178.48,-1004.76 179.06,-1015.34 185.53,-1012.67"/>
</a>
</g>
<g id="a_edge31&#45;label"><a xlink:title="net/http.readRequest &#45;&gt; net/http.newTextprotoReader (512.02kB)">
<text xml:space="preserve" text-anchor="middle" x="240.5" y="-1043.7" font-family="Times,serif" font-size="14.00"> 512.02kB</text>
</a>
</g>
</g>
<!-- N16&#45;&gt;N1 -->
<g id="edge14" class="edge">
<title>N16&#45;&gt;N1</title>
<g id="a_edge14"><a xlink:title="net/http.serverHandler.ServeHTTP &#45;&gt; net/http.HandlerFunc.ServeHTTP (2090.79kB)">
<path fill="none" stroke="#b21400" stroke-width="4" d="M552,-1174.39C552,-1163.63 552,-1150.47 552,-1138.2"/>
<polygon fill="#b21400" stroke="#b21400" stroke-width="4" points="555.5,-1138.38 552,-1128.38 548.5,-1138.38 555.5,-1138.38"/>
</a>
</g>
<g id="a_edge14&#45;label"><a xlink:title="net/http.serverHandler.ServeHTTP &#45;&gt; net/http.HandlerFunc.ServeHTTP (2090.79kB)">
<text xml:space="preserve" text-anchor="middle" x="583.88" y="-1143.2" font-family="Times,serif" font-size="14.00"> 2090.79kB</text>
</a>
</g>
</g>
<!-- N17 -->
<g id="node17" class="node">
<title>N17</title>
<g id="a_node17"><a xlink:title="regexp.Compile (&#45;512.69kB)">
<polygon fill="#e1edd9" stroke="#5db21f" points="983.12,-739.12 886.88,-739.12 886.88,-701.88 983.12,-701.88 983.12,-739.12"/>
<text xml:space="preserve" text-anchor="middle" x="935" y="-727.52" font-family="Times,serif" font-size="8.00">regexp</text>
<text xml:space="preserve" text-anchor="middle" x="935" y="-717.77" font-family="Times,serif" font-size="8.00">Compile</text>
<text xml:space="preserve" text-anchor="middle" x="935" y="-708.02" font-family="Times,serif" font-size="8.00">0 of &#45;512.69kB (16.46%)</text>
</a>
</g>
</g>
<!-- N19 -->
<g id="node19" class="node">
<title>N19</title>
<g id="a_node19"><a xlink:title="regexp.compile (&#45;512.69kB)">
<polygon fill="#e1edd9" stroke="#5db21f" points="983.12,-639.62 886.88,-639.62 886.88,-602.38 983.12,-602.38 983.12,-639.62"/>
<text xml:space="preserve" text-anchor="middle" x="935" y="-628.02" font-family="Times,serif" font-size="8.00">regexp</text>
<text xml:space="preserve" text-anchor="middle" x="935" y="-618.27" font-family="Times,serif" font-size="8.00">compile</text>
<text xml:space="preserve" text-anchor="middle" x="935" y="-608.52" font-family="Times,serif" font-size="8.00">0 of &#45;512.69kB (16.46%)</text>
</a>
</g>
</g>
<!-- N17&#45;&gt;N19 -->
<g id="edge19" class="edge">
<title>N17&#45;&gt;N19</title>
<g id="a_edge19"><a xlink:title="regexp.Compile &#45;&gt; regexp.compile (&#45;512.69kB)">
<path fill="none" stroke="#5db21f" d="M935,-701.62C935,-687.55 935,-667.66 935,-651.27"/>
<polygon fill="#5db21f" stroke="#5db21f" points="938.5,-651.61 935,-641.61 931.5,-651.61 938.5,-651.61"/>
</a>
</g>
<g id="a_edge19&#45;label"><a xlink:title="regexp.Compile &#45;&gt; regexp.compile (&#45;512.69kB)">
<text xml:space="preserve" text-anchor="middle" x="965.75" y="-665.7" font-family="Times,serif" font-size="14.00"> &#45;512.69kB</text>
</a>
</g>
</g>
<!-- N18&#45;&gt;N17 -->
<g id="edge20" class="edge">
<title>N18&#45;&gt;N17</title>
<g id="a_edge20"><a xlink:title="regexp.MustCompile &#45;&gt; regexp.Compile (&#45;512.69kB)">
<path fill="none" stroke="#5db21f" d="M935,-826.03C935,-806.17 935,-774.01 935,-750.6"/>
<polygon fill="#5db21f" stroke="#5db21f" points="938.5,-750.78 935,-740.78 931.5,-750.78 938.5,-750.78"/>
</a>
</g>
<g id="a_edge20&#45;label"><a xlink:title="regexp.MustCompile &#45;&gt; regexp.Compile (&#45;512.69kB)">
<text xml:space="preserve" text-anchor="middle" x="965.75" y="-781.7" font-family="Times,serif" font-size="14.00"> &#45;512.69kB</text>
<text xml:space="preserve" text-anchor="middle" x="965.75" y="-765.2" font-family="Times,serif" font-size="14.00"> (inline)</text>
</a>
</g>
</g>
<!-- N22 -->
<g id="node22" class="node">
<title>N22</title>
<g id="a_node22"><a xlink:title="regexp/syntax.Compile (&#45;512.69kB)">
<polygon fill="#e1edd9" stroke="#5db21f" points="983.12,-519.12 886.88,-519.12 886.88,-481.88 983.12,-481.88 983.12,-519.12"/>
<text xml:space="preserve" text-anchor="middle" x="935" y="-507.52" font-family="Times,serif" font-size="8.00">syntax</text>
<text xml:space="preserve" text-anchor="middle" x="935" y="-497.77" font-family="Times,serif" font-size="8.00">Compile</text>
<text xml:space="preserve" text-anchor="middle" x="935" y="-488.02" font-family="Times,serif" font-size="8.00">0 of &#45;512.69kB (16.46%)</text>
</a>
</g>
</g>
<!-- N19&#45;&gt;N22 -->
<g id="edge21" class="edge">
<title>N19&#45;&gt;N22</title>
<g id="a_edge21"><a xlink:title="regexp.compile &#45;&gt; regexp/syntax.Compile (&#45;512.69kB)">
<path fill="none" stroke="#5db21f" d="M935,-602C935,-583.1 935,-553.08 935,-530.76"/>
<polygon fill="#5db21f" stroke="#5db21f" points="938.5,-530.79 935,-520.79 931.5,-530.79 938.5,-530.79"/>
</a>
</g>
<g id="a_edge21&#45;label"><a xlink:title="regexp.compile &#45;&gt; regexp/syntax.Compile (&#45;512.69kB)">
<text xml:space="preserve" text-anchor="middle" x="965.75" y="-566.2" font-family="Times,serif" font-size="14.00"> &#45;512.69kB</text>
</a>
</g>
</g>
<!-- N20 -->
<g id="node20" class="node">
<title>N20</title>
<g id="a_node20"><a xlink:title="regexp/syntax.(*compiler).cap (&#45;512.69kB)">
<polygon fill="#e1edd9" stroke="#5db21f" points="983.12,-287.5 886.88,-287.5 886.88,-240.5 983.12,-240.5 983.12,-287.5"/>
<text xml:space="preserve" text-anchor="middle" x="935" y="-275.9" font-family="Times,serif" font-size="8.00">syntax</text>
<text xml:space="preserve" text-anchor="middle" x="935" y="-266.15" font-family="Times,serif" font-size="8.00">(*compiler)</text>
<text xml:space="preserve" text-anchor="middle" x="935" y="-256.4" font-family="Times,serif" font-size="8.00">cap</text>
<text xml:space="preserve" text-anchor="middle" x="935" y="-246.65" font-family="Times,serif" font-size="8.00">0 of &#45;512.69kB (16.46%)</text>
</a>
</g>
</g>
<!-- N20&#45;&gt;N4 -->
<g id="edge22" class="edge">
<title>N20&#45;&gt;N4</title>
<g id="a_edge22"><a xlink:title="regexp/syntax.(*compiler).cap &#45;&gt; regexp/syntax.(*compiler).inst (&#45;512.69kB)">
<path fill="none" stroke="#5db21f" d="M935,-240.01C935,-224.32 935,-202.9 935,-183.2"/>
<polygon fill="#5db21f" stroke="#5db21f" points="938.5,-183.36 935,-173.36 931.5,-183.36 938.5,-183.36"/>
</a>
</g>
<g id="a_edge22&#45;label"><a xlink:title="regexp/syntax.(*compiler).cap &#45;&gt; regexp/syntax.(*compiler).inst (&#45;512.69kB)">
<text xml:space="preserve" text-anchor="middle" x="965.75" y="-209.2" font-family="Times,serif" font-size="14.00"> &#45;512.69kB</text>
<text xml:space="preserve" text-anchor="middle" x="965.75" y="-192.7" font-family="Times,serif" font-size="14.00"> (inline)</text>
</a>
</g>
</g>
<!-- N21 -->
<g id="node21" class="node">
<title>N21</title>
<g id="a_node21"><a xlink:title="regexp/syntax.(*compiler).compile (&#45;512.69kB)">
<polygon fill="#e1edd9" stroke="#5db21f" points="983.12,-403.5 886.88,-403.5 886.88,-356.5 983.12,-356.5 983.12,-403.5"/>
<text xml:space="preserve" text-anchor="middle" x="935" y="-391.9" font-family="Times,serif" font-size="8.00">syntax</text>
<text xml:space="preserve" text-anchor="middle" x="935" y="-382.15" font-family="Times,serif" font-size="8.00">(*compiler)</text>
<text xml:space="preserve" text-anchor="middle" x="935" y="-372.4" font-family="Times,serif" font-size="8.00">compile</text>
<text xml:space="preserve" text-anchor="middle" x="935" y="-362.65" font-family="Times,serif" font-size="8.00">0 of &#45;512.69kB (16.46%)</text>
</a>
</g>
</g>
<!-- N21&#45;&gt;N20 -->
<g id="edge23" class="edge">
<title>N21&#45;&gt;N20</title>
<g id="a_edge23"><a xlink:title="regexp/syntax.(*compiler).compile &#45;&gt; regexp/syntax.(*compiler).cap (&#45;512.69kB)">
<path fill="none" stroke="#5db21f" d="M935,-356.2C935,-339.89 935,-317.65 935,-299.22"/>
<polygon fill="#5db21f" stroke="#5db21f" points="938.5,-299.27 935,-289.27 931.5,-299.27 938.5,-299.27"/>
</a>
</g>
<g id="a_edge23&#45;label"><a xlink:title="regexp/syntax.(*compiler).compile &#45;&gt; regexp/syntax.(*compiler).cap (&#45;512.69kB)">
<text xml:space="preserve" text-anchor="middle" x="965.75" y="-325.2" font-family="Times,serif" font-size="14.00"> &#45;512.69kB</text>
<text xml:space="preserve" text-anchor="middle" x="965.75" y="-308.7" font-family="Times,serif" font-size="14.00"> (inline)</text>
</a>
</g>
</g>
<!-- N22&#45;&gt;N21 -->
<g id="edge24" class="edge">
<title>N22&#45;&gt;N21</title>
<g id="a_edge24"><a xlink:title="regexp/syntax.Compile &#45;&gt; regexp/syntax.(*compiler).compile (&#45;512.69kB)">
<path fill="none" stroke="#5db21f" d="M935,-481.5C935,-463.91 935,-436.69 935,-415.01"/>
<polygon fill="#5db21f" stroke="#5db21f" points="938.5,-415.15 935,-405.15 931.5,-415.15 938.5,-415.15"/>
</a>
</g>
<g id="a_edge24&#45;label"><a xlink:title="regexp/syntax.Compile &#45;&gt; regexp/syntax.(*compiler).compile (&#45;512.69kB)">
<text xml:space="preserve" text-anchor="middle" x="965.75" y="-424.7" font-family="Times,serif" font-size="14.00"> &#45;512.69kB</text>
</a>
</g>
</g>
<!-- N24 -->
<g id="node24" class="node">
<title>N24</title>
<g id="a_node24"><a xlink:title="runtime.doInit1 (&#45;512.69kB)">
<polygon fill="#e1edd9" stroke="#5db21f" points="983.12,-1117.12 886.88,-1117.12 886.88,-1079.88 983.12,-1079.88 983.12,-1117.12"/>
<text xml:space="preserve" text-anchor="middle" x="935" y="-1105.53" font-family="Times,serif" font-size="8.00">runtime</text>
<text xml:space="preserve" text-anchor="middle" x="935" y="-1095.78" font-family="Times,serif" font-size="8.00">doInit1</text>
<text xml:space="preserve" text-anchor="middle" x="935" y="-1086.03" font-family="Times,serif" font-size="8.00">0 of &#45;512.69kB (16.46%)</text>
</a>
</g>
</g>
<!-- N23&#45;&gt;N24 -->
<g id="edge25" class="edge">
<title>N23&#45;&gt;N24</title>
<g id="a_edge25"><a xlink:title="runtime.doInit &#45;&gt; runtime.doInit1 (&#45;512.69kB)">
<path fill="none" stroke="#5db21f" d="M935,-1179.12C935,-1165.05 935,-1145.16 935,-1128.77"/>
<polygon fill="#5db21f" stroke="#5db21f" points="938.5,-1129.11 935,-1119.11 931.5,-1129.11 938.5,-1129.11"/>
</a>
</g>
<g id="a_edge25&#45;label"><a xlink:title="runtime.doInit &#45;&gt; runtime.doInit1 (&#45;512.69kB)">
<text xml:space="preserve" text-anchor="middle" x="965.75" y="-1143.2" font-family="Times,serif" font-size="14.00"> &#45;512.69kB</text>
</a>
</g>
</g>
<!-- N24&#45;&gt;N7 -->
<g id="edge26" class="edge">
<title>N24&#45;&gt;N7</title>
<g id="a_edge26"><a xlink:title="runtime.doInit1 &#45;&gt; github.com/prometheus/procfs.init (&#45;512.69kB)">
<path fill="none" stroke="#5db21f" d="M935,-1079.49C935,-1061.99 935,-1035.15 935,-1014.6"/>
<polygon fill="#5db21f" stroke="#5db21f" points="938.5,-1014.86 935,-1004.86 931.5,-1014.86 938.5,-1014.86"/>
</a>
</g>
<g id="a_edge26&#45;label"><a xlink:title="runtime.doInit1 &#45;&gt; github.com/prometheus/procfs.init (&#45;512.69kB)">
<text xml:space="preserve" text-anchor="middle" x="965.75" y="-1043.7" font-family="Times,serif" font-size="14.00"> &#45;512.69kB</text>
</a>
</g>
</g>
<!-- N25 -->
<g id="node25" class="node">
<title>N25</title>
<g id="a_node25"><a xlink:title="strings.(*Builder).Grow (2090.79kB)">
<polygon fill="#edd8d5" stroke="#b21400" points="339.5,-744 242.5,-744 242.5,-697 339.5,-697 339.5,-744"/>
<text xml:space="preserve" text-anchor="middle" x="291" y="-732.4" font-family="Times,serif" font-size="8.00">strings</text>
<text xml:space="preserve" text-anchor="middle" x="291" y="-722.65" font-family="Times,serif" font-size="8.00">(*Builder)</text>
<text xml:space="preserve" text-anchor="middle" x="291" y="-712.9" font-family="Times,serif" font-size="8.00">Grow</text>
<text xml:space="preserve" text-anchor="middle" x="291" y="-703.15" font-family="Times,serif" font-size="8.00">0 of 2090.79kB (67.11%)</text>
</a>
</g>
</g>
<!-- N26 -->
<g id="node26" class="node">
<title>N26</title>
<g id="a_node26"><a xlink:title="strings.(*Builder).grow (2090.79kB)">
<polygon fill="#edd8d5" stroke="#b21400" points="339.5,-644.5 242.5,-644.5 242.5,-597.5 339.5,-597.5 339.5,-644.5"/>
<text xml:space="preserve" text-anchor="middle" x="291" y="-632.9" font-family="Times,serif" font-size="8.00">strings</text>
<text xml:space="preserve" text-anchor="middle" x="291" y="-623.15" font-family="Times,serif" font-size="8.00">(*Builder)</text>
<text xml:space="preserve" text-anchor="middle" x="291" y="-613.4" font-family="Times,serif" font-size="8.00">grow</text>
<text xml:space="preserve" text-anchor="middle" x="291" y="-603.65" font-family="Times,serif" font-size="8.00">0 of 2090.79kB (67.11%)</text>
</a>
</g>
</g>
<!-- N25&#45;&gt;N26 -->
<g id="edge15" class="edge">
<title>N25&#45;&gt;N26</title>
<g id="a_edge15"><a xlink:title="strings.(*Builder).Grow &#45;&gt; strings.(*Builder).grow (2090.79kB)">
<path fill="none" stroke="#b21400" stroke-width="4" d="M291,-696.89C291,-686.13 291,-672.97 291,-660.7"/>
<polygon fill="#b21400" stroke="#b21400" stroke-width="4" points="294.5,-660.88 291,-650.88 287.5,-660.88 294.5,-660.88"/>
</a>
</g>
<g id="a_edge15&#45;label"><a xlink:title="strings.(*Builder).Grow &#45;&gt; strings.(*Builder).grow (2090.79kB)">
<text xml:space="preserve" text-anchor="middle" x="322.88" y="-665.7" font-family="Times,serif" font-size="14.00"> 2090.79kB</text>
</a>
</g>
</g>
<!-- N26&#45;&gt;N3 -->
<g id="edge16" class="edge">
<title>N26&#45;&gt;N3</title>
<g id="a_edge16"><a xlink:title="strings.(*Builder).grow &#45;&gt; internal/bytealg.MakeNoZero (2090.79kB)">
<path fill="none" stroke="#b21400" stroke-width="4" d="M291,-597.15C291,-586.84 291,-574.13 291,-561.38"/>
<polygon fill="#b21400" stroke="#b21400" stroke-width="4" points="294.5,-561.45 291,-551.45 287.5,-561.45 294.5,-561.45"/>
</a>
</g>
<g id="a_edge16&#45;label"><a xlink:title="strings.(*Builder).grow &#45;&gt; internal/bytealg.MakeNoZero (2090.79kB)">
<text xml:space="preserve" text-anchor="middle" x="322.88" y="-566.2" font-family="Times,serif" font-size="14.00"> 2090.79kB</text>
</a>
</g>
</g>
<!-- N27&#45;&gt;N25 -->
<g id="edge17" class="edge">
<title>N27&#45;&gt;N25</title>
<g id="a_edge17"><a xlink:title="strings.Repeat &#45;&gt; strings.(*Builder).Grow (2090.79kB)">
<path fill="none" stroke="#b21400" stroke-width="4" d="M291,-826.03C291,-808.72 291,-782.07 291,-760.01"/>
<polygon fill="#b21400" stroke="#b21400" stroke-width="4" points="294.5,-760.32 291,-750.32 287.5,-760.32 294.5,-760.32"/>
</a>
</g>
<g id="a_edge17&#45;label"><a xlink:title="strings.Repeat &#45;&gt; strings.(*Builder).Grow (2090.79kB)">
<text xml:space="preserve" text-anchor="middle" x="322.88" y="-773.45" font-family="Times,serif" font-size="14.00"> 2090.79kB</text>
</a>
</g>
</g>
</g>
</svg>
